<svg width="363" height="40" viewBox="0 0 363 40" fill="none" xmlns="http://www.w3.org/2000/svg">
<mask id="path-1-outside-1_23_7" maskUnits="userSpaceOnUse" x="0.119995" y="-0.432007" width="363" height="41" fill="black">
<rect fill="white" x="0.119995" y="-0.432007" width="363" height="41"/>
<path d="M18.976 38V23.744H8.992V38H1.12V4.736H8.992V17.6H18.976V4.736H26.848V38H18.976Z"/>
<path d="M53.2007 30.608C53.2007 31.568 53.3287 32.272 53.5847 32.72C53.8727 33.168 54.3207 33.504 54.9287 33.728L53.3447 38.672C51.7767 38.544 50.4967 38.208 49.5047 37.664C48.5127 37.088 47.7447 36.192 47.2007 34.976C45.5367 37.536 42.9767 38.816 39.5207 38.816C36.9927 38.816 34.9767 38.08 33.4727 36.608C31.9687 35.136 31.2167 33.216 31.2167 30.848C31.2167 28.064 32.2407 25.936 34.2887 24.464C36.3367 22.992 39.2967 22.256 43.1687 22.256H45.7607V21.152C45.7607 19.648 45.4407 18.624 44.8007 18.08C44.1607 17.504 43.0407 17.216 41.4407 17.216C40.6087 17.216 39.6007 17.344 38.4167 17.6C37.2327 17.824 36.0167 18.144 34.7687 18.56L33.0407 13.568C34.6407 12.96 36.2727 12.496 37.9367 12.176C39.6327 11.856 41.2007 11.696 42.6407 11.696C46.2887 11.696 48.9607 12.448 50.6567 13.952C52.3527 15.456 53.2007 17.712 53.2007 20.72V30.608ZM41.7287 33.392C43.4567 33.392 44.8007 32.576 45.7607 30.944V26.432H43.8887C42.1607 26.432 40.8647 26.736 40.0007 27.344C39.1687 27.952 38.7527 28.896 38.7527 30.176C38.7527 31.2 39.0087 32 39.5207 32.576C40.0647 33.12 40.8007 33.392 41.7287 33.392Z"/>
<path d="M65.5409 38.816C63.3329 38.816 61.6049 38.192 60.3569 36.944C59.1409 35.664 58.5329 33.856 58.5329 31.52V2.38399L66.1169 1.56799V31.232C66.1169 32.288 66.5489 32.816 67.4129 32.816C67.8609 32.816 68.2769 32.736 68.6609 32.576L70.1489 37.952C68.7729 38.528 67.2369 38.816 65.5409 38.816Z"/>
<path d="M93.0445 30.608C93.0445 31.568 93.1725 32.272 93.4285 32.72C93.7165 33.168 94.1645 33.504 94.7725 33.728L93.1885 38.672C91.6205 38.544 90.3405 38.208 89.3485 37.664C88.3565 37.088 87.5885 36.192 87.0445 34.976C85.3805 37.536 82.8205 38.816 79.3645 38.816C76.8365 38.816 74.8205 38.08 73.3165 36.608C71.8125 35.136 71.0605 33.216 71.0605 30.848C71.0605 28.064 72.0845 25.936 74.1325 24.464C76.1805 22.992 79.1405 22.256 83.0125 22.256H85.6045V21.152C85.6045 19.648 85.2845 18.624 84.6445 18.08C84.0045 17.504 82.8845 17.216 81.2845 17.216C80.4525 17.216 79.4445 17.344 78.2605 17.6C77.0765 17.824 75.8605 18.144 74.6125 18.56L72.8845 13.568C74.4845 12.96 76.1165 12.496 77.7805 12.176C79.4765 11.856 81.0445 11.696 82.4845 11.696C86.1325 11.696 88.8045 12.448 90.5005 13.952C92.1965 15.456 93.0445 17.712 93.0445 20.72V30.608ZM81.5725 33.392C83.3005 33.392 84.6445 32.576 85.6045 30.944V26.432H83.7325C82.0045 26.432 80.7085 26.736 79.8445 27.344C79.0125 27.952 78.5965 28.896 78.5965 30.176C78.5965 31.2 78.8525 32 79.3645 32.576C79.9085 33.12 80.6445 33.392 81.5725 33.392Z"/>
<path d="M114.013 11.696C116.221 11.696 117.949 12.368 119.197 13.712C120.445 15.056 121.069 16.944 121.069 19.376V38H113.485V20.672C113.485 19.392 113.277 18.512 112.861 18.032C112.477 17.52 111.885 17.264 111.085 17.264C109.549 17.264 108.077 18.368 106.669 20.576V38H99.0854V12.512H105.709L106.237 15.536C107.325 14.256 108.493 13.296 109.741 12.656C111.021 12.016 112.445 11.696 114.013 11.696Z"/>
<path d="M138.323 38V4.736H158.147L157.331 10.352H146.195V19.184H155.891V24.8H146.195V38H138.323Z"/>
<path d="M182.106 24.752C182.106 25.808 182.058 26.72 181.962 27.488H166.17C166.426 29.632 167.034 31.136 167.994 32C168.954 32.864 170.282 33.296 171.978 33.296C173.002 33.296 173.994 33.12 174.954 32.768C175.914 32.384 176.954 31.808 178.074 31.04L181.194 35.264C178.218 37.632 174.906 38.816 171.258 38.816C167.13 38.816 163.962 37.6 161.754 35.168C159.546 32.736 158.442 29.472 158.442 25.376C158.442 22.784 158.906 20.464 159.834 18.416C160.762 16.336 162.122 14.704 163.914 13.52C165.706 12.304 167.85 11.696 170.346 11.696C174.026 11.696 176.906 12.848 178.986 15.152C181.066 17.456 182.106 20.656 182.106 24.752ZM174.666 22.592C174.602 18.688 173.226 16.736 170.538 16.736C169.226 16.736 168.202 17.216 167.466 18.176C166.762 19.136 166.33 20.72 166.17 22.928H174.666V22.592Z"/>
<path d="M200.191 11.792C201.119 11.792 201.967 11.904 202.735 12.128L201.535 19.472C200.575 19.248 199.807 19.136 199.231 19.136C197.727 19.136 196.575 19.664 195.775 20.72C195.007 21.744 194.399 23.296 193.951 25.376V38H186.367V12.512H192.991L193.615 17.456C194.191 15.696 195.055 14.32 196.207 13.328C197.391 12.304 198.719 11.792 200.191 11.792Z"/>
<path d="M220.56 11.696C222.768 11.696 224.496 12.368 225.744 13.712C226.992 15.056 227.616 16.944 227.616 19.376V38H220.032V20.672C220.032 19.392 219.824 18.512 219.408 18.032C219.024 17.52 218.432 17.264 217.632 17.264C216.096 17.264 214.624 18.368 213.216 20.576V38H205.632V12.512H212.256L212.784 15.536C213.872 14.256 215.04 13.296 216.288 12.656C217.568 12.016 218.992 11.696 220.56 11.696Z"/>
<path d="M253.591 30.608C253.591 31.568 253.719 32.272 253.975 32.72C254.263 33.168 254.711 33.504 255.319 33.728L253.735 38.672C252.167 38.544 250.887 38.208 249.895 37.664C248.903 37.088 248.135 36.192 247.591 34.976C245.927 37.536 243.367 38.816 239.911 38.816C237.383 38.816 235.367 38.08 233.863 36.608C232.359 35.136 231.607 33.216 231.607 30.848C231.607 28.064 232.631 25.936 234.679 24.464C236.727 22.992 239.687 22.256 243.559 22.256H246.151V21.152C246.151 19.648 245.831 18.624 245.191 18.08C244.551 17.504 243.431 17.216 241.831 17.216C240.999 17.216 239.991 17.344 238.807 17.6C237.623 17.824 236.407 18.144 235.159 18.56L233.431 13.568C235.031 12.96 236.663 12.496 238.327 12.176C240.023 11.856 241.591 11.696 243.031 11.696C246.679 11.696 249.351 12.448 251.047 13.952C252.743 15.456 253.591 17.712 253.591 20.72V30.608ZM242.119 33.392C243.847 33.392 245.191 32.576 246.151 30.944V26.432H244.279C242.551 26.432 241.255 26.736 240.391 27.344C239.559 27.952 239.143 28.896 239.143 30.176C239.143 31.2 239.399 32 239.911 32.576C240.455 33.12 241.191 33.392 242.119 33.392Z"/>
<path d="M274.56 11.696C276.768 11.696 278.496 12.368 279.744 13.712C280.992 15.056 281.616 16.944 281.616 19.376V38H274.032V20.672C274.032 19.392 273.824 18.512 273.408 18.032C273.024 17.52 272.432 17.264 271.632 17.264C270.096 17.264 268.624 18.368 267.216 20.576V38H259.632V12.512H266.256L266.784 15.536C267.872 14.256 269.04 13.296 270.288 12.656C271.568 12.016 272.992 11.696 274.56 11.696Z"/>
<path d="M310.183 2.38399V38H303.463L303.079 35.024C301.287 37.552 298.871 38.816 295.831 38.816C292.663 38.816 290.247 37.6 288.583 35.168C286.951 32.736 286.135 29.408 286.135 25.184C286.135 22.592 286.567 20.272 287.431 18.224C288.295 16.176 289.511 14.576 291.079 13.424C292.679 12.272 294.503 11.696 296.551 11.696C298.983 11.696 300.999 12.496 302.599 14.096V1.56799L310.183 2.38399ZM298.183 33.248C299.943 33.248 301.415 32.288 302.599 30.368V19.376C301.991 18.64 301.367 18.096 300.727 17.744C300.119 17.392 299.415 17.216 298.615 17.216C297.207 17.216 296.087 17.872 295.255 19.184C294.423 20.496 294.007 22.512 294.007 25.232C294.007 28.208 294.359 30.288 295.063 31.472C295.799 32.656 296.839 33.248 298.183 33.248Z"/>
<path d="M338.341 24.752C338.341 25.808 338.293 26.72 338.197 27.488H322.405C322.661 29.632 323.269 31.136 324.229 32C325.189 32.864 326.517 33.296 328.213 33.296C329.237 33.296 330.229 33.12 331.189 32.768C332.149 32.384 333.189 31.808 334.309 31.04L337.429 35.264C334.453 37.632 331.141 38.816 327.493 38.816C323.365 38.816 320.197 37.6 317.989 35.168C315.781 32.736 314.677 29.472 314.677 25.376C314.677 22.784 315.141 20.464 316.069 18.416C316.997 16.336 318.357 14.704 320.149 13.52C321.941 12.304 324.085 11.696 326.581 11.696C330.261 11.696 333.141 12.848 335.221 15.152C337.301 17.456 338.341 20.656 338.341 24.752ZM330.901 22.592C330.837 18.688 329.461 16.736 326.773 16.736C325.461 16.736 324.437 17.216 323.701 18.176C322.997 19.136 322.565 20.72 322.405 22.928H330.901V22.592Z"/>
<path d="M351.577 11.696C353.401 11.696 355.113 11.968 356.713 12.512C358.313 13.056 359.721 13.824 360.937 14.816L358.153 19.088C356.073 17.776 353.977 17.12 351.865 17.12C350.873 17.12 350.105 17.296 349.561 17.648C349.049 17.968 348.793 18.432 348.793 19.04C348.793 19.52 348.905 19.92 349.129 20.24C349.385 20.528 349.881 20.832 350.617 21.152C351.353 21.472 352.489 21.856 354.025 22.304C356.681 23.072 358.649 24.08 359.929 25.328C361.241 26.544 361.897 28.24 361.897 30.416C361.897 32.144 361.401 33.648 360.409 34.928C359.417 36.176 358.057 37.136 356.329 37.808C354.601 38.48 352.681 38.816 350.569 38.816C348.425 38.816 346.425 38.48 344.569 37.808C342.745 37.136 341.193 36.208 339.913 35.024L343.609 30.896C345.753 32.56 348.009 33.392 350.377 33.392C351.529 33.392 352.425 33.184 353.065 32.768C353.737 32.352 354.073 31.76 354.073 30.992C354.073 30.384 353.945 29.904 353.689 29.552C353.433 29.2 352.937 28.88 352.201 28.592C351.465 28.272 350.297 27.888 348.697 27.44C346.169 26.704 344.281 25.68 343.033 24.368C341.785 23.056 341.161 21.424 341.161 19.472C341.161 18 341.577 16.688 342.409 15.536C343.273 14.352 344.489 13.424 346.057 12.752C347.657 12.048 349.497 11.696 351.577 11.696Z"/>
</mask>
<path d="M18.976 38V23.744H8.992V38H1.12V4.736H8.992V17.6H18.976V4.736H26.848V38H18.976Z" fill="black"/>
<path d="M53.2007 30.608C53.2007 31.568 53.3287 32.272 53.5847 32.72C53.8727 33.168 54.3207 33.504 54.9287 33.728L53.3447 38.672C51.7767 38.544 50.4967 38.208 49.5047 37.664C48.5127 37.088 47.7447 36.192 47.2007 34.976C45.5367 37.536 42.9767 38.816 39.5207 38.816C36.9927 38.816 34.9767 38.08 33.4727 36.608C31.9687 35.136 31.2167 33.216 31.2167 30.848C31.2167 28.064 32.2407 25.936 34.2887 24.464C36.3367 22.992 39.2967 22.256 43.1687 22.256H45.7607V21.152C45.7607 19.648 45.4407 18.624 44.8007 18.08C44.1607 17.504 43.0407 17.216 41.4407 17.216C40.6087 17.216 39.6007 17.344 38.4167 17.6C37.2327 17.824 36.0167 18.144 34.7687 18.56L33.0407 13.568C34.6407 12.96 36.2727 12.496 37.9367 12.176C39.6327 11.856 41.2007 11.696 42.6407 11.696C46.2887 11.696 48.9607 12.448 50.6567 13.952C52.3527 15.456 53.2007 17.712 53.2007 20.72V30.608ZM41.7287 33.392C43.4567 33.392 44.8007 32.576 45.7607 30.944V26.432H43.8887C42.1607 26.432 40.8647 26.736 40.0007 27.344C39.1687 27.952 38.7527 28.896 38.7527 30.176C38.7527 31.2 39.0087 32 39.5207 32.576C40.0647 33.12 40.8007 33.392 41.7287 33.392Z" fill="black"/>
<path d="M65.5409 38.816C63.3329 38.816 61.6049 38.192 60.3569 36.944C59.1409 35.664 58.5329 33.856 58.5329 31.52V2.38399L66.1169 1.56799V31.232C66.1169 32.288 66.5489 32.816 67.4129 32.816C67.8609 32.816 68.2769 32.736 68.6609 32.576L70.1489 37.952C68.7729 38.528 67.2369 38.816 65.5409 38.816Z" fill="black"/>
<path d="M93.0445 30.608C93.0445 31.568 93.1725 32.272 93.4285 32.72C93.7165 33.168 94.1645 33.504 94.7725 33.728L93.1885 38.672C91.6205 38.544 90.3405 38.208 89.3485 37.664C88.3565 37.088 87.5885 36.192 87.0445 34.976C85.3805 37.536 82.8205 38.816 79.3645 38.816C76.8365 38.816 74.8205 38.08 73.3165 36.608C71.8125 35.136 71.0605 33.216 71.0605 30.848C71.0605 28.064 72.0845 25.936 74.1325 24.464C76.1805 22.992 79.1405 22.256 83.0125 22.256H85.6045V21.152C85.6045 19.648 85.2845 18.624 84.6445 18.08C84.0045 17.504 82.8845 17.216 81.2845 17.216C80.4525 17.216 79.4445 17.344 78.2605 17.6C77.0765 17.824 75.8605 18.144 74.6125 18.56L72.8845 13.568C74.4845 12.96 76.1165 12.496 77.7805 12.176C79.4765 11.856 81.0445 11.696 82.4845 11.696C86.1325 11.696 88.8045 12.448 90.5005 13.952C92.1965 15.456 93.0445 17.712 93.0445 20.72V30.608ZM81.5725 33.392C83.3005 33.392 84.6445 32.576 85.6045 30.944V26.432H83.7325C82.0045 26.432 80.7085 26.736 79.8445 27.344C79.0125 27.952 78.5965 28.896 78.5965 30.176C78.5965 31.2 78.8525 32 79.3645 32.576C79.9085 33.12 80.6445 33.392 81.5725 33.392Z" fill="black"/>
<path d="M114.013 11.696C116.221 11.696 117.949 12.368 119.197 13.712C120.445 15.056 121.069 16.944 121.069 19.376V38H113.485V20.672C113.485 19.392 113.277 18.512 112.861 18.032C112.477 17.52 111.885 17.264 111.085 17.264C109.549 17.264 108.077 18.368 106.669 20.576V38H99.0854V12.512H105.709L106.237 15.536C107.325 14.256 108.493 13.296 109.741 12.656C111.021 12.016 112.445 11.696 114.013 11.696Z" fill="black"/>
<path d="M138.323 38V4.736H158.147L157.331 10.352H146.195V19.184H155.891V24.8H146.195V38H138.323Z" fill="black"/>
<path d="M182.106 24.752C182.106 25.808 182.058 26.72 181.962 27.488H166.17C166.426 29.632 167.034 31.136 167.994 32C168.954 32.864 170.282 33.296 171.978 33.296C173.002 33.296 173.994 33.12 174.954 32.768C175.914 32.384 176.954 31.808 178.074 31.04L181.194 35.264C178.218 37.632 174.906 38.816 171.258 38.816C167.13 38.816 163.962 37.6 161.754 35.168C159.546 32.736 158.442 29.472 158.442 25.376C158.442 22.784 158.906 20.464 159.834 18.416C160.762 16.336 162.122 14.704 163.914 13.52C165.706 12.304 167.85 11.696 170.346 11.696C174.026 11.696 176.906 12.848 178.986 15.152C181.066 17.456 182.106 20.656 182.106 24.752ZM174.666 22.592C174.602 18.688 173.226 16.736 170.538 16.736C169.226 16.736 168.202 17.216 167.466 18.176C166.762 19.136 166.33 20.72 166.17 22.928H174.666V22.592Z" fill="black"/>
<path d="M200.191 11.792C201.119 11.792 201.967 11.904 202.735 12.128L201.535 19.472C200.575 19.248 199.807 19.136 199.231 19.136C197.727 19.136 196.575 19.664 195.775 20.72C195.007 21.744 194.399 23.296 193.951 25.376V38H186.367V12.512H192.991L193.615 17.456C194.191 15.696 195.055 14.32 196.207 13.328C197.391 12.304 198.719 11.792 200.191 11.792Z" fill="black"/>
<path d="M220.56 11.696C222.768 11.696 224.496 12.368 225.744 13.712C226.992 15.056 227.616 16.944 227.616 19.376V38H220.032V20.672C220.032 19.392 219.824 18.512 219.408 18.032C219.024 17.52 218.432 17.264 217.632 17.264C216.096 17.264 214.624 18.368 213.216 20.576V38H205.632V12.512H212.256L212.784 15.536C213.872 14.256 215.04 13.296 216.288 12.656C217.568 12.016 218.992 11.696 220.56 11.696Z" fill="black"/>
<path d="M253.591 30.608C253.591 31.568 253.719 32.272 253.975 32.72C254.263 33.168 254.711 33.504 255.319 33.728L253.735 38.672C252.167 38.544 250.887 38.208 249.895 37.664C248.903 37.088 248.135 36.192 247.591 34.976C245.927 37.536 243.367 38.816 239.911 38.816C237.383 38.816 235.367 38.08 233.863 36.608C232.359 35.136 231.607 33.216 231.607 30.848C231.607 28.064 232.631 25.936 234.679 24.464C236.727 22.992 239.687 22.256 243.559 22.256H246.151V21.152C246.151 19.648 245.831 18.624 245.191 18.08C244.551 17.504 243.431 17.216 241.831 17.216C240.999 17.216 239.991 17.344 238.807 17.6C237.623 17.824 236.407 18.144 235.159 18.56L233.431 13.568C235.031 12.96 236.663 12.496 238.327 12.176C240.023 11.856 241.591 11.696 243.031 11.696C246.679 11.696 249.351 12.448 251.047 13.952C252.743 15.456 253.591 17.712 253.591 20.72V30.608ZM242.119 33.392C243.847 33.392 245.191 32.576 246.151 30.944V26.432H244.279C242.551 26.432 241.255 26.736 240.391 27.344C239.559 27.952 239.143 28.896 239.143 30.176C239.143 31.2 239.399 32 239.911 32.576C240.455 33.12 241.191 33.392 242.119 33.392Z" fill="black"/>
<path d="M274.56 11.696C276.768 11.696 278.496 12.368 279.744 13.712C280.992 15.056 281.616 16.944 281.616 19.376V38H274.032V20.672C274.032 19.392 273.824 18.512 273.408 18.032C273.024 17.52 272.432 17.264 271.632 17.264C270.096 17.264 268.624 18.368 267.216 20.576V38H259.632V12.512H266.256L266.784 15.536C267.872 14.256 269.04 13.296 270.288 12.656C271.568 12.016 272.992 11.696 274.56 11.696Z" fill="black"/>
<path d="M310.183 2.38399V38H303.463L303.079 35.024C301.287 37.552 298.871 38.816 295.831 38.816C292.663 38.816 290.247 37.6 288.583 35.168C286.951 32.736 286.135 29.408 286.135 25.184C286.135 22.592 286.567 20.272 287.431 18.224C288.295 16.176 289.511 14.576 291.079 13.424C292.679 12.272 294.503 11.696 296.551 11.696C298.983 11.696 300.999 12.496 302.599 14.096V1.56799L310.183 2.38399ZM298.183 33.248C299.943 33.248 301.415 32.288 302.599 30.368V19.376C301.991 18.64 301.367 18.096 300.727 17.744C300.119 17.392 299.415 17.216 298.615 17.216C297.207 17.216 296.087 17.872 295.255 19.184C294.423 20.496 294.007 22.512 294.007 25.232C294.007 28.208 294.359 30.288 295.063 31.472C295.799 32.656 296.839 33.248 298.183 33.248Z" fill="black"/>
<path d="M338.341 24.752C338.341 25.808 338.293 26.72 338.197 27.488H322.405C322.661 29.632 323.269 31.136 324.229 32C325.189 32.864 326.517 33.296 328.213 33.296C329.237 33.296 330.229 33.12 331.189 32.768C332.149 32.384 333.189 31.808 334.309 31.04L337.429 35.264C334.453 37.632 331.141 38.816 327.493 38.816C323.365 38.816 320.197 37.6 317.989 35.168C315.781 32.736 314.677 29.472 314.677 25.376C314.677 22.784 315.141 20.464 316.069 18.416C316.997 16.336 318.357 14.704 320.149 13.52C321.941 12.304 324.085 11.696 326.581 11.696C330.261 11.696 333.141 12.848 335.221 15.152C337.301 17.456 338.341 20.656 338.341 24.752ZM330.901 22.592C330.837 18.688 329.461 16.736 326.773 16.736C325.461 16.736 324.437 17.216 323.701 18.176C322.997 19.136 322.565 20.72 322.405 22.928H330.901V22.592Z" fill="black"/>
<path d="M351.577 11.696C353.401 11.696 355.113 11.968 356.713 12.512C358.313 13.056 359.721 13.824 360.937 14.816L358.153 19.088C356.073 17.776 353.977 17.12 351.865 17.12C350.873 17.12 350.105 17.296 349.561 17.648C349.049 17.968 348.793 18.432 348.793 19.04C348.793 19.52 348.905 19.92 349.129 20.24C349.385 20.528 349.881 20.832 350.617 21.152C351.353 21.472 352.489 21.856 354.025 22.304C356.681 23.072 358.649 24.08 359.929 25.328C361.241 26.544 361.897 28.24 361.897 30.416C361.897 32.144 361.401 33.648 360.409 34.928C359.417 36.176 358.057 37.136 356.329 37.808C354.601 38.48 352.681 38.816 350.569 38.816C348.425 38.816 346.425 38.48 344.569 37.808C342.745 37.136 341.193 36.208 339.913 35.024L343.609 30.896C345.753 32.56 348.009 33.392 350.377 33.392C351.529 33.392 352.425 33.184 353.065 32.768C353.737 32.352 354.073 31.76 354.073 30.992C354.073 30.384 353.945 29.904 353.689 29.552C353.433 29.2 352.937 28.88 352.201 28.592C351.465 28.272 350.297 27.888 348.697 27.44C346.169 26.704 344.281 25.68 343.033 24.368C341.785 23.056 341.161 21.424 341.161 19.472C341.161 18 341.577 16.688 342.409 15.536C343.273 14.352 344.489 13.424 346.057 12.752C347.657 12.048 349.497 11.696 351.577 11.696Z" fill="black"/>
<path d="M18.976 38V23.744H8.992V38H1.12V4.736H8.992V17.6H18.976V4.736H26.848V38H18.976Z" stroke="black" stroke-width="2" mask="url(#path-1-outside-1_23_7)"/>
<path d="M18.976 38V23.744H8.992V38H1.12V4.736H8.992V17.6H18.976V4.736H26.848V38H18.976Z" stroke="black" stroke-opacity="0.2" stroke-width="2" mask="url(#path-1-outside-1_23_7)"/>
<path d="M53.2007 30.608C53.2007 31.568 53.3287 32.272 53.5847 32.72C53.8727 33.168 54.3207 33.504 54.9287 33.728L53.3447 38.672C51.7767 38.544 50.4967 38.208 49.5047 37.664C48.5127 37.088 47.7447 36.192 47.2007 34.976C45.5367 37.536 42.9767 38.816 39.5207 38.816C36.9927 38.816 34.9767 38.08 33.4727 36.608C31.9687 35.136 31.2167 33.216 31.2167 30.848C31.2167 28.064 32.2407 25.936 34.2887 24.464C36.3367 22.992 39.2967 22.256 43.1687 22.256H45.7607V21.152C45.7607 19.648 45.4407 18.624 44.8007 18.08C44.1607 17.504 43.0407 17.216 41.4407 17.216C40.6087 17.216 39.6007 17.344 38.4167 17.6C37.2327 17.824 36.0167 18.144 34.7687 18.56L33.0407 13.568C34.6407 12.96 36.2727 12.496 37.9367 12.176C39.6327 11.856 41.2007 11.696 42.6407 11.696C46.2887 11.696 48.9607 12.448 50.6567 13.952C52.3527 15.456 53.2007 17.712 53.2007 20.72V30.608ZM41.7287 33.392C43.4567 33.392 44.8007 32.576 45.7607 30.944V26.432H43.8887C42.1607 26.432 40.8647 26.736 40.0007 27.344C39.1687 27.952 38.7527 28.896 38.7527 30.176C38.7527 31.2 39.0087 32 39.5207 32.576C40.0647 33.12 40.8007 33.392 41.7287 33.392Z" stroke="black" stroke-width="2" mask="url(#path-1-outside-1_23_7)"/>
<path d="M53.2007 30.608C53.2007 31.568 53.3287 32.272 53.5847 32.72C53.8727 33.168 54.3207 33.504 54.9287 33.728L53.3447 38.672C51.7767 38.544 50.4967 38.208 49.5047 37.664C48.5127 37.088 47.7447 36.192 47.2007 34.976C45.5367 37.536 42.9767 38.816 39.5207 38.816C36.9927 38.816 34.9767 38.08 33.4727 36.608C31.9687 35.136 31.2167 33.216 31.2167 30.848C31.2167 28.064 32.2407 25.936 34.2887 24.464C36.3367 22.992 39.2967 22.256 43.1687 22.256H45.7607V21.152C45.7607 19.648 45.4407 18.624 44.8007 18.08C44.1607 17.504 43.0407 17.216 41.4407 17.216C40.6087 17.216 39.6007 17.344 38.4167 17.6C37.2327 17.824 36.0167 18.144 34.7687 18.56L33.0407 13.568C34.6407 12.96 36.2727 12.496 37.9367 12.176C39.6327 11.856 41.2007 11.696 42.6407 11.696C46.2887 11.696 48.9607 12.448 50.6567 13.952C52.3527 15.456 53.2007 17.712 53.2007 20.72V30.608ZM41.7287 33.392C43.4567 33.392 44.8007 32.576 45.7607 30.944V26.432H43.8887C42.1607 26.432 40.8647 26.736 40.0007 27.344C39.1687 27.952 38.7527 28.896 38.7527 30.176C38.7527 31.2 39.0087 32 39.5207 32.576C40.0647 33.12 40.8007 33.392 41.7287 33.392Z" stroke="black" stroke-opacity="0.2" stroke-width="2" mask="url(#path-1-outside-1_23_7)"/>
<path d="M65.5409 38.816C63.3329 38.816 61.6049 38.192 60.3569 36.944C59.1409 35.664 58.5329 33.856 58.5329 31.52V2.38399L66.1169 1.56799V31.232C66.1169 32.288 66.5489 32.816 67.4129 32.816C67.8609 32.816 68.2769 32.736 68.6609 32.576L70.1489 37.952C68.7729 38.528 67.2369 38.816 65.5409 38.816Z" stroke="black" stroke-width="2" mask="url(#path-1-outside-1_23_7)"/>
<path d="M65.5409 38.816C63.3329 38.816 61.6049 38.192 60.3569 36.944C59.1409 35.664 58.5329 33.856 58.5329 31.52V2.38399L66.1169 1.56799V31.232C66.1169 32.288 66.5489 32.816 67.4129 32.816C67.8609 32.816 68.2769 32.736 68.6609 32.576L70.1489 37.952C68.7729 38.528 67.2369 38.816 65.5409 38.816Z" stroke="black" stroke-opacity="0.2" stroke-width="2" mask="url(#path-1-outside-1_23_7)"/>
<path d="M93.0445 30.608C93.0445 31.568 93.1725 32.272 93.4285 32.72C93.7165 33.168 94.1645 33.504 94.7725 33.728L93.1885 38.672C91.6205 38.544 90.3405 38.208 89.3485 37.664C88.3565 37.088 87.5885 36.192 87.0445 34.976C85.3805 37.536 82.8205 38.816 79.3645 38.816C76.8365 38.816 74.8205 38.08 73.3165 36.608C71.8125 35.136 71.0605 33.216 71.0605 30.848C71.0605 28.064 72.0845 25.936 74.1325 24.464C76.1805 22.992 79.1405 22.256 83.0125 22.256H85.6045V21.152C85.6045 19.648 85.2845 18.624 84.6445 18.08C84.0045 17.504 82.8845 17.216 81.2845 17.216C80.4525 17.216 79.4445 17.344 78.2605 17.6C77.0765 17.824 75.8605 18.144 74.6125 18.56L72.8845 13.568C74.4845 12.96 76.1165 12.496 77.7805 12.176C79.4765 11.856 81.0445 11.696 82.4845 11.696C86.1325 11.696 88.8045 12.448 90.5005 13.952C92.1965 15.456 93.0445 17.712 93.0445 20.72V30.608ZM81.5725 33.392C83.3005 33.392 84.6445 32.576 85.6045 30.944V26.432H83.7325C82.0045 26.432 80.7085 26.736 79.8445 27.344C79.0125 27.952 78.5965 28.896 78.5965 30.176C78.5965 31.2 78.8525 32 79.3645 32.576C79.9085 33.12 80.6445 33.392 81.5725 33.392Z" stroke="black" stroke-width="2" mask="url(#path-1-outside-1_23_7)"/>
<path d="M93.0445 30.608C93.0445 31.568 93.1725 32.272 93.4285 32.72C93.7165 33.168 94.1645 33.504 94.7725 33.728L93.1885 38.672C91.6205 38.544 90.3405 38.208 89.3485 37.664C88.3565 37.088 87.5885 36.192 87.0445 34.976C85.3805 37.536 82.8205 38.816 79.3645 38.816C76.8365 38.816 74.8205 38.08 73.3165 36.608C71.8125 35.136 71.0605 33.216 71.0605 30.848C71.0605 28.064 72.0845 25.936 74.1325 24.464C76.1805 22.992 79.1405 22.256 83.0125 22.256H85.6045V21.152C85.6045 19.648 85.2845 18.624 84.6445 18.08C84.0045 17.504 82.8845 17.216 81.2845 17.216C80.4525 17.216 79.4445 17.344 78.2605 17.6C77.0765 17.824 75.8605 18.144 74.6125 18.56L72.8845 13.568C74.4845 12.96 76.1165 12.496 77.7805 12.176C79.4765 11.856 81.0445 11.696 82.4845 11.696C86.1325 11.696 88.8045 12.448 90.5005 13.952C92.1965 15.456 93.0445 17.712 93.0445 20.72V30.608ZM81.5725 33.392C83.3005 33.392 84.6445 32.576 85.6045 30.944V26.432H83.7325C82.0045 26.432 80.7085 26.736 79.8445 27.344C79.0125 27.952 78.5965 28.896 78.5965 30.176C78.5965 31.2 78.8525 32 79.3645 32.576C79.9085 33.12 80.6445 33.392 81.5725 33.392Z" stroke="black" stroke-opacity="0.2" stroke-width="2" mask="url(#path-1-outside-1_23_7)"/>
<path d="M114.013 11.696C116.221 11.696 117.949 12.368 119.197 13.712C120.445 15.056 121.069 16.944 121.069 19.376V38H113.485V20.672C113.485 19.392 113.277 18.512 112.861 18.032C112.477 17.52 111.885 17.264 111.085 17.264C109.549 17.264 108.077 18.368 106.669 20.576V38H99.0854V12.512H105.709L106.237 15.536C107.325 14.256 108.493 13.296 109.741 12.656C111.021 12.016 112.445 11.696 114.013 11.696Z" stroke="black" stroke-width="2" mask="url(#path-1-outside-1_23_7)"/>
<path d="M114.013 11.696C116.221 11.696 117.949 12.368 119.197 13.712C120.445 15.056 121.069 16.944 121.069 19.376V38H113.485V20.672C113.485 19.392 113.277 18.512 112.861 18.032C112.477 17.52 111.885 17.264 111.085 17.264C109.549 17.264 108.077 18.368 106.669 20.576V38H99.0854V12.512H105.709L106.237 15.536C107.325 14.256 108.493 13.296 109.741 12.656C111.021 12.016 112.445 11.696 114.013 11.696Z" stroke="black" stroke-opacity="0.2" stroke-width="2" mask="url(#path-1-outside-1_23_7)"/>
<path d="M138.323 38V4.736H158.147L157.331 10.352H146.195V19.184H155.891V24.8H146.195V38H138.323Z" stroke="black" stroke-width="2" mask="url(#path-1-outside-1_23_7)"/>
<path d="M138.323 38V4.736H158.147L157.331 10.352H146.195V19.184H155.891V24.8H146.195V38H138.323Z" stroke="black" stroke-opacity="0.2" stroke-width="2" mask="url(#path-1-outside-1_23_7)"/>
<path d="M182.106 24.752C182.106 25.808 182.058 26.72 181.962 27.488H166.17C166.426 29.632 167.034 31.136 167.994 32C168.954 32.864 170.282 33.296 171.978 33.296C173.002 33.296 173.994 33.12 174.954 32.768C175.914 32.384 176.954 31.808 178.074 31.04L181.194 35.264C178.218 37.632 174.906 38.816 171.258 38.816C167.13 38.816 163.962 37.6 161.754 35.168C159.546 32.736 158.442 29.472 158.442 25.376C158.442 22.784 158.906 20.464 159.834 18.416C160.762 16.336 162.122 14.704 163.914 13.52C165.706 12.304 167.85 11.696 170.346 11.696C174.026 11.696 176.906 12.848 178.986 15.152C181.066 17.456 182.106 20.656 182.106 24.752ZM174.666 22.592C174.602 18.688 173.226 16.736 170.538 16.736C169.226 16.736 168.202 17.216 167.466 18.176C166.762 19.136 166.33 20.72 166.17 22.928H174.666V22.592Z" stroke="black" stroke-width="2" mask="url(#path-1-outside-1_23_7)"/>
<path d="M182.106 24.752C182.106 25.808 182.058 26.72 181.962 27.488H166.17C166.426 29.632 167.034 31.136 167.994 32C168.954 32.864 170.282 33.296 171.978 33.296C173.002 33.296 173.994 33.12 174.954 32.768C175.914 32.384 176.954 31.808 178.074 31.04L181.194 35.264C178.218 37.632 174.906 38.816 171.258 38.816C167.13 38.816 163.962 37.6 161.754 35.168C159.546 32.736 158.442 29.472 158.442 25.376C158.442 22.784 158.906 20.464 159.834 18.416C160.762 16.336 162.122 14.704 163.914 13.52C165.706 12.304 167.85 11.696 170.346 11.696C174.026 11.696 176.906 12.848 178.986 15.152C181.066 17.456 182.106 20.656 182.106 24.752ZM174.666 22.592C174.602 18.688 173.226 16.736 170.538 16.736C169.226 16.736 168.202 17.216 167.466 18.176C166.762 19.136 166.33 20.72 166.17 22.928H174.666V22.592Z" stroke="black" stroke-opacity="0.2" stroke-width="2" mask="url(#path-1-outside-1_23_7)"/>
<path d="M200.191 11.792C201.119 11.792 201.967 11.904 202.735 12.128L201.535 19.472C200.575 19.248 199.807 19.136 199.231 19.136C197.727 19.136 196.575 19.664 195.775 20.72C195.007 21.744 194.399 23.296 193.951 25.376V38H186.367V12.512H192.991L193.615 17.456C194.191 15.696 195.055 14.32 196.207 13.328C197.391 12.304 198.719 11.792 200.191 11.792Z" stroke="black" stroke-width="2" mask="url(#path-1-outside-1_23_7)"/>
<path d="M200.191 11.792C201.119 11.792 201.967 11.904 202.735 12.128L201.535 19.472C200.575 19.248 199.807 19.136 199.231 19.136C197.727 19.136 196.575 19.664 195.775 20.72C195.007 21.744 194.399 23.296 193.951 25.376V38H186.367V12.512H192.991L193.615 17.456C194.191 15.696 195.055 14.32 196.207 13.328C197.391 12.304 198.719 11.792 200.191 11.792Z" stroke="black" stroke-opacity="0.2" stroke-width="2" mask="url(#path-1-outside-1_23_7)"/>
<path d="M220.56 11.696C222.768 11.696 224.496 12.368 225.744 13.712C226.992 15.056 227.616 16.944 227.616 19.376V38H220.032V20.672C220.032 19.392 219.824 18.512 219.408 18.032C219.024 17.52 218.432 17.264 217.632 17.264C216.096 17.264 214.624 18.368 213.216 20.576V38H205.632V12.512H212.256L212.784 15.536C213.872 14.256 215.04 13.296 216.288 12.656C217.568 12.016 218.992 11.696 220.56 11.696Z" stroke="black" stroke-width="2" mask="url(#path-1-outside-1_23_7)"/>
<path d="M220.56 11.696C222.768 11.696 224.496 12.368 225.744 13.712C226.992 15.056 227.616 16.944 227.616 19.376V38H220.032V20.672C220.032 19.392 219.824 18.512 219.408 18.032C219.024 17.52 218.432 17.264 217.632 17.264C216.096 17.264 214.624 18.368 213.216 20.576V38H205.632V12.512H212.256L212.784 15.536C213.872 14.256 215.04 13.296 216.288 12.656C217.568 12.016 218.992 11.696 220.56 11.696Z" stroke="black" stroke-opacity="0.2" stroke-width="2" mask="url(#path-1-outside-1_23_7)"/>
<path d="M253.591 30.608C253.591 31.568 253.719 32.272 253.975 32.72C254.263 33.168 254.711 33.504 255.319 33.728L253.735 38.672C252.167 38.544 250.887 38.208 249.895 37.664C248.903 37.088 248.135 36.192 247.591 34.976C245.927 37.536 243.367 38.816 239.911 38.816C237.383 38.816 235.367 38.08 233.863 36.608C232.359 35.136 231.607 33.216 231.607 30.848C231.607 28.064 232.631 25.936 234.679 24.464C236.727 22.992 239.687 22.256 243.559 22.256H246.151V21.152C246.151 19.648 245.831 18.624 245.191 18.08C244.551 17.504 243.431 17.216 241.831 17.216C240.999 17.216 239.991 17.344 238.807 17.6C237.623 17.824 236.407 18.144 235.159 18.56L233.431 13.568C235.031 12.96 236.663 12.496 238.327 12.176C240.023 11.856 241.591 11.696 243.031 11.696C246.679 11.696 249.351 12.448 251.047 13.952C252.743 15.456 253.591 17.712 253.591 20.72V30.608ZM242.119 33.392C243.847 33.392 245.191 32.576 246.151 30.944V26.432H244.279C242.551 26.432 241.255 26.736 240.391 27.344C239.559 27.952 239.143 28.896 239.143 30.176C239.143 31.2 239.399 32 239.911 32.576C240.455 33.12 241.191 33.392 242.119 33.392Z" stroke="black" stroke-width="2" mask="url(#path-1-outside-1_23_7)"/>
<path d="M253.591 30.608C253.591 31.568 253.719 32.272 253.975 32.72C254.263 33.168 254.711 33.504 255.319 33.728L253.735 38.672C252.167 38.544 250.887 38.208 249.895 37.664C248.903 37.088 248.135 36.192 247.591 34.976C245.927 37.536 243.367 38.816 239.911 38.816C237.383 38.816 235.367 38.08 233.863 36.608C232.359 35.136 231.607 33.216 231.607 30.848C231.607 28.064 232.631 25.936 234.679 24.464C236.727 22.992 239.687 22.256 243.559 22.256H246.151V21.152C246.151 19.648 245.831 18.624 245.191 18.08C244.551 17.504 243.431 17.216 241.831 17.216C240.999 17.216 239.991 17.344 238.807 17.6C237.623 17.824 236.407 18.144 235.159 18.56L233.431 13.568C235.031 12.96 236.663 12.496 238.327 12.176C240.023 11.856 241.591 11.696 243.031 11.696C246.679 11.696 249.351 12.448 251.047 13.952C252.743 15.456 253.591 17.712 253.591 20.72V30.608ZM242.119 33.392C243.847 33.392 245.191 32.576 246.151 30.944V26.432H244.279C242.551 26.432 241.255 26.736 240.391 27.344C239.559 27.952 239.143 28.896 239.143 30.176C239.143 31.2 239.399 32 239.911 32.576C240.455 33.12 241.191 33.392 242.119 33.392Z" stroke="black" stroke-opacity="0.2" stroke-width="2" mask="url(#path-1-outside-1_23_7)"/>
<path d="M274.56 11.696C276.768 11.696 278.496 12.368 279.744 13.712C280.992 15.056 281.616 16.944 281.616 19.376V38H274.032V20.672C274.032 19.392 273.824 18.512 273.408 18.032C273.024 17.52 272.432 17.264 271.632 17.264C270.096 17.264 268.624 18.368 267.216 20.576V38H259.632V12.512H266.256L266.784 15.536C267.872 14.256 269.04 13.296 270.288 12.656C271.568 12.016 272.992 11.696 274.56 11.696Z" stroke="black" stroke-width="2" mask="url(#path-1-outside-1_23_7)"/>
<path d="M274.56 11.696C276.768 11.696 278.496 12.368 279.744 13.712C280.992 15.056 281.616 16.944 281.616 19.376V38H274.032V20.672C274.032 19.392 273.824 18.512 273.408 18.032C273.024 17.52 272.432 17.264 271.632 17.264C270.096 17.264 268.624 18.368 267.216 20.576V38H259.632V12.512H266.256L266.784 15.536C267.872 14.256 269.04 13.296 270.288 12.656C271.568 12.016 272.992 11.696 274.56 11.696Z" stroke="black" stroke-opacity="0.2" stroke-width="2" mask="url(#path-1-outside-1_23_7)"/>
<path d="M310.183 2.38399V38H303.463L303.079 35.024C301.287 37.552 298.871 38.816 295.831 38.816C292.663 38.816 290.247 37.6 288.583 35.168C286.951 32.736 286.135 29.408 286.135 25.184C286.135 22.592 286.567 20.272 287.431 18.224C288.295 16.176 289.511 14.576 291.079 13.424C292.679 12.272 294.503 11.696 296.551 11.696C298.983 11.696 300.999 12.496 302.599 14.096V1.56799L310.183 2.38399ZM298.183 33.248C299.943 33.248 301.415 32.288 302.599 30.368V19.376C301.991 18.64 301.367 18.096 300.727 17.744C300.119 17.392 299.415 17.216 298.615 17.216C297.207 17.216 296.087 17.872 295.255 19.184C294.423 20.496 294.007 22.512 294.007 25.232C294.007 28.208 294.359 30.288 295.063 31.472C295.799 32.656 296.839 33.248 298.183 33.248Z" stroke="black" stroke-width="2" mask="url(#path-1-outside-1_23_7)"/>
<path d="M310.183 2.38399V38H303.463L303.079 35.024C301.287 37.552 298.871 38.816 295.831 38.816C292.663 38.816 290.247 37.6 288.583 35.168C286.951 32.736 286.135 29.408 286.135 25.184C286.135 22.592 286.567 20.272 287.431 18.224C288.295 16.176 289.511 14.576 291.079 13.424C292.679 12.272 294.503 11.696 296.551 11.696C298.983 11.696 300.999 12.496 302.599 14.096V1.56799L310.183 2.38399ZM298.183 33.248C299.943 33.248 301.415 32.288 302.599 30.368V19.376C301.991 18.64 301.367 18.096 300.727 17.744C300.119 17.392 299.415 17.216 298.615 17.216C297.207 17.216 296.087 17.872 295.255 19.184C294.423 20.496 294.007 22.512 294.007 25.232C294.007 28.208 294.359 30.288 295.063 31.472C295.799 32.656 296.839 33.248 298.183 33.248Z" stroke="black" stroke-opacity="0.2" stroke-width="2" mask="url(#path-1-outside-1_23_7)"/>
<path d="M338.341 24.752C338.341 25.808 338.293 26.72 338.197 27.488H322.405C322.661 29.632 323.269 31.136 324.229 32C325.189 32.864 326.517 33.296 328.213 33.296C329.237 33.296 330.229 33.12 331.189 32.768C332.149 32.384 333.189 31.808 334.309 31.04L337.429 35.264C334.453 37.632 331.141 38.816 327.493 38.816C323.365 38.816 320.197 37.6 317.989 35.168C315.781 32.736 314.677 29.472 314.677 25.376C314.677 22.784 315.141 20.464 316.069 18.416C316.997 16.336 318.357 14.704 320.149 13.52C321.941 12.304 324.085 11.696 326.581 11.696C330.261 11.696 333.141 12.848 335.221 15.152C337.301 17.456 338.341 20.656 338.341 24.752ZM330.901 22.592C330.837 18.688 329.461 16.736 326.773 16.736C325.461 16.736 324.437 17.216 323.701 18.176C322.997 19.136 322.565 20.72 322.405 22.928H330.901V22.592Z" stroke="black" stroke-width="2" mask="url(#path-1-outside-1_23_7)"/>
<path d="M338.341 24.752C338.341 25.808 338.293 26.72 338.197 27.488H322.405C322.661 29.632 323.269 31.136 324.229 32C325.189 32.864 326.517 33.296 328.213 33.296C329.237 33.296 330.229 33.12 331.189 32.768C332.149 32.384 333.189 31.808 334.309 31.04L337.429 35.264C334.453 37.632 331.141 38.816 327.493 38.816C323.365 38.816 320.197 37.6 317.989 35.168C315.781 32.736 314.677 29.472 314.677 25.376C314.677 22.784 315.141 20.464 316.069 18.416C316.997 16.336 318.357 14.704 320.149 13.52C321.941 12.304 324.085 11.696 326.581 11.696C330.261 11.696 333.141 12.848 335.221 15.152C337.301 17.456 338.341 20.656 338.341 24.752ZM330.901 22.592C330.837 18.688 329.461 16.736 326.773 16.736C325.461 16.736 324.437 17.216 323.701 18.176C322.997 19.136 322.565 20.72 322.405 22.928H330.901V22.592Z" stroke="black" stroke-opacity="0.2" stroke-width="2" mask="url(#path-1-outside-1_23_7)"/>
<path d="M351.577 11.696C353.401 11.696 355.113 11.968 356.713 12.512C358.313 13.056 359.721 13.824 360.937 14.816L358.153 19.088C356.073 17.776 353.977 17.12 351.865 17.12C350.873 17.12 350.105 17.296 349.561 17.648C349.049 17.968 348.793 18.432 348.793 19.04C348.793 19.52 348.905 19.92 349.129 20.24C349.385 20.528 349.881 20.832 350.617 21.152C351.353 21.472 352.489 21.856 354.025 22.304C356.681 23.072 358.649 24.08 359.929 25.328C361.241 26.544 361.897 28.24 361.897 30.416C361.897 32.144 361.401 33.648 360.409 34.928C359.417 36.176 358.057 37.136 356.329 37.808C354.601 38.48 352.681 38.816 350.569 38.816C348.425 38.816 346.425 38.48 344.569 37.808C342.745 37.136 341.193 36.208 339.913 35.024L343.609 30.896C345.753 32.56 348.009 33.392 350.377 33.392C351.529 33.392 352.425 33.184 353.065 32.768C353.737 32.352 354.073 31.76 354.073 30.992C354.073 30.384 353.945 29.904 353.689 29.552C353.433 29.2 352.937 28.88 352.201 28.592C351.465 28.272 350.297 27.888 348.697 27.44C346.169 26.704 344.281 25.68 343.033 24.368C341.785 23.056 341.161 21.424 341.161 19.472C341.161 18 341.577 16.688 342.409 15.536C343.273 14.352 344.489 13.424 346.057 12.752C347.657 12.048 349.497 11.696 351.577 11.696Z" stroke="black" stroke-width="2" mask="url(#path-1-outside-1_23_7)"/>
<path d="M351.577 11.696C353.401 11.696 355.113 11.968 356.713 12.512C358.313 13.056 359.721 13.824 360.937 14.816L358.153 19.088C356.073 17.776 353.977 17.12 351.865 17.12C350.873 17.12 350.105 17.296 349.561 17.648C349.049 17.968 348.793 18.432 348.793 19.04C348.793 19.52 348.905 19.92 349.129 20.24C349.385 20.528 349.881 20.832 350.617 21.152C351.353 21.472 352.489 21.856 354.025 22.304C356.681 23.072 358.649 24.08 359.929 25.328C361.241 26.544 361.897 28.24 361.897 30.416C361.897 32.144 361.401 33.648 360.409 34.928C359.417 36.176 358.057 37.136 356.329 37.808C354.601 38.48 352.681 38.816 350.569 38.816C348.425 38.816 346.425 38.48 344.569 37.808C342.745 37.136 341.193 36.208 339.913 35.024L343.609 30.896C345.753 32.56 348.009 33.392 350.377 33.392C351.529 33.392 352.425 33.184 353.065 32.768C353.737 32.352 354.073 31.76 354.073 30.992C354.073 30.384 353.945 29.904 353.689 29.552C353.433 29.2 352.937 28.88 352.201 28.592C351.465 28.272 350.297 27.888 348.697 27.44C346.169 26.704 344.281 25.68 343.033 24.368C341.785 23.056 341.161 21.424 341.161 19.472C341.161 18 341.577 16.688 342.409 15.536C343.273 14.352 344.489 13.424 346.057 12.752C347.657 12.048 349.497 11.696 351.577 11.696Z" stroke="black" stroke-opacity="0.2" stroke-width="2" mask="url(#path-1-outside-1_23_7)"/>
</svg>
